<?xml version="1.0" standalone="no"?>
<!DOCTYPE svg PUBLIC "-//W3C//DTD SVG 20010904//EN"
 "http://www.w3.org/TR/2001/REC-SVG-20010904/DTD/svg10.dtd">
<svg version="1.0" xmlns="http://www.w3.org/2000/svg"
 width="512.000000pt" height="512.000000pt" viewBox="0 0 512.000000 512.000000"
 preserveAspectRatio="xMidYMid meet">
<metadata>
Created by potrace 1.11, written by Peter Selinger 2001-2013
</metadata>
<g transform="translate(0.000000,512.000000) scale(0.100000,-0.100000)"
fill="#000000" stroke="none">
<path d="M3155 4894 c-78 -14 -118 -27 -218 -73 -115 -53 -364 -210 -435 -274
-21 -20 -25 -20 -120 -7 -89 12 -287 16 -339 6 -12 -3 -46 -7 -75 -10 -29 -4
-64 -9 -78 -12 -14 -3 -38 -8 -55 -11 -16 -2 -67 -16 -114 -29 -420 -122 -747
-404 -894 -770 -33 -80 -38 -87 -83 -111 -132 -70 -280 -191 -359 -293 -146
-189 -158 -343 -35 -454 99 -89 188 -109 480 -105 l215 2 85 -31 c47 -17 105
-33 130 -37 25 -3 56 -7 70 -10 14 -2 70 -7 125 -10 339 -20 431 -28 442 -39
3 -3 7 -29 9 -58 16 -204 186 -473 352 -555 44 -21 61 -25 103 -20 82 10 143
69 156 151 6 39 42 134 52 141 5 2 18 -21 30 -53 64 -174 53 -377 -30 -551
l-41 -83 -41 45 c-94 100 -199 161 -305 175 -32 4 -147 7 -257 7 -227 -1 -246
-6 -266 -74 -10 -33 -8 -46 22 -117 115 -280 288 -473 454 -508 29 -6 30 -9
33 -68 7 -185 121 -358 329 -505 40 -28 69 -54 65 -58 -4 -5 -1 -5 6 -1 8 5
21 2 30 -7 9 -8 40 -25 69 -38 28 -13 49 -27 47 -31 -3 -4 1 -5 9 -2 8 3 21
-1 28 -8 19 -18 47 -20 95 -6 49 14 64 41 69 125 7 104 16 185 30 262 31 172
5 342 -67 449 -17 24 -28 45 -26 46 1 1 50 26 108 55 214 108 402 259 565 452
205 245 337 554 372 874 17 160 3 416 -32 570 -79 356 -281 684 -566 922 l-66
55 19 51 c29 78 117 256 150 305 16 23 41 67 54 97 43 94 20 149 -86 202 -77
38 -121 44 -215 27z"/>
<path d="M4413 2215 c-115 -31 -214 -95 -333 -214 -178 -179 -357 -458 -464
-728 -29 -74 -34 -96 -26 -117 19 -50 51 -35 158 72 113 114 194 173 312 230
78 37 228 86 297 98 15 2 39 7 53 9 14 3 36 7 50 10 248 45 350 118 377 271
18 96 1 179 -50 246 -91 119 -225 163 -374 123z"/>
<path d="M907 1444 c-1 -1 -18 -4 -38 -7 -81 -10 -177 -61 -232 -122 -10 -11
-30 -45 -45 -75 -39 -79 -37 -181 3 -265 52 -105 166 -199 285 -234 60 -18 92
-22 190 -26 52 -3 147 -7 210 -10 132 -6 219 -24 292 -61 52 -26 151 -111 144
-123 -6 -9 33 -12 61 -6 37 8 37 40 2 128 -87 219 -229 447 -361 578 -110 110
-263 196 -383 215 -39 6 -124 12 -128 8z"/>
<path d="M3925 1050 c-83 -22 -146 -62 -222 -139 -67 -68 -159 -198 -170 -239
-4 -16 1 -30 15 -44 l20 -21 84 22 c112 28 200 39 278 35 164 -10 211 0 270
57 43 42 70 114 64 170 -14 123 -183 203 -339 159z"/>
<path d="M1856 527 c3 -10 9 -15 12 -12 3 3 0 11 -7 18 -10 9 -11 8 -5 -6z"/>
<path d="M1700 360 c-9 -6 -10 -10 -3 -10 6 0 15 5 18 10 8 12 4 12 -15 0z"/>
<path d="M2490 366 c0 -2 7 -7 16 -10 8 -3 12 -2 9 4 -6 10 -25 14 -25 6z"/>
</g>
</svg>
